<svg xmlns="http://www.w3.org/2000/svg" viewBox="0 0 240 760" role="img" aria-labelledby="title desc">
  <title id="title">Areshnaat ornamental banner</title>
  <desc id="desc">Vertical green and gold ornamental banner for the Areshnaat homepage rail.</desc>
  <defs>
    <linearGradient id="bg" x1="0" y1="0" x2="0" y2="1">
      <stop offset="0%" stop-color="#103723"/>
      <stop offset="52%" stop-color="#174b31"/>
      <stop offset="100%" stop-color="#0c2b1d"/>
    </linearGradient>
    <linearGradient id="gold" x1="0" y1="0" x2="1" y2="1">
      <stop offset="0%" stop-color="#f4dfa2"/>
      <stop offset="45%" stop-color="#d6ae57"/>
      <stop offset="100%" stop-color="#8d6420"/>
    </linearGradient>
    <radialGradient id="glow" cx="50%" cy="28%" r="55%">
      <stop offset="0%" stop-color="#f4dfa2" stop-opacity="0.28"/>
      <stop offset="100%" stop-color="#f4dfa2" stop-opacity="0"/>
    </radialGradient>
  </defs>
  <rect x="10" y="8" width="220" height="744" rx="12" fill="url(#bg)" stroke="#8d6420" stroke-width="3"/>
  <rect x="20" y="18" width="200" height="724" rx="9" fill="none" stroke="#d6ae57" stroke-width="1.5" opacity="0.75"/>
  <rect x="34" y="34" width="172" height="692" rx="84" fill="url(#glow)" opacity="0.9"/>
  <g opacity="0.95">
    <path d="M120 138 L166 184 L120 230 L74 184 Z" fill="#131313" stroke="url(#gold)" stroke-width="8"/>
    <circle cx="120" cy="184" r="82" fill="none" stroke="url(#gold)" stroke-width="9"/>
    <circle cx="120" cy="184" r="95" fill="none" stroke="#f4dfa2" stroke-width="1.5" opacity="0.6"/>
  </g>
  <path d="M68 324 C92 298, 148 298, 172 324" fill="none" stroke="#d6ae57" stroke-width="3" opacity="0.72"/>
  <path d="M82 362 C98 346, 142 346, 158 362" fill="none" stroke="#f4dfa2" stroke-width="1.4" opacity="0.6"/>
  <path d="M58 446 C84 480, 156 480, 182 446" fill="none" stroke="#d6ae57" stroke-width="3" opacity="0.7"/>
  <path d="M72 498 C92 522, 148 522, 168 498" fill="none" stroke="#f4dfa2" stroke-width="1.4" opacity="0.56"/>
  <path d="M66 592 C94 560, 146 560, 174 592" fill="none" stroke="#d6ae57" stroke-width="3" opacity="0.76"/>
  <path d="M86 638 C100 622, 140 622, 154 638" fill="none" stroke="#f4dfa2" stroke-width="1.3" opacity="0.5"/>
</svg>
